# xmcd CD database file
#
# Track frame offsets:
#	150
#	16635
#	35542
#	54050
#	65897
#	79935
#	92197
#	103910
#	122485
#	137435
#	158865
#	179962
#	196177
#	210350
#	224427
#	237370
#
# Disc length: 3337 seconds
#
# Revision: 14
# Processed by: cddbd v1.5.2PL0 Copyright (c) Steve Scherf et al.
# Submitted via: CDex 1.51
#
DISCID=de0d0710
DTITLE=Jacques Brel - Master Série Vol. 1
DYEAR=1987
DGENRE=Chanson
TTITLE0=Jaurès
TTITLE1=Ne me quitte pas
TTITLE2=Les vieux
TTITLE3=La quête
TTITLE4=On n'oublie rien
TTITLE5=Le plat pays
TTITLE6=Mathilde
TTITLE7=Les remparts de Varsovie
TTITLE8=Amsterdam
TTITLE9=J'arrive
TTITLE10=Ces gens-là
TTITLE11=Jef
TTITLE12=Vesoul
TTITLE13=Au suivant
TTITLE14=Madeleine
TTITLE15=Les bourgeois
EXTD=YEAR: 1987
EXTT0=
EXTT1=
EXTT2=
EXTT3=
EXTT4=
EXTT5=
EXTT6=
EXTT7=
EXTT8=
EXTT9=
EXTT10=
EXTT11=
EXTT12=
EXTT13=
EXTT14=
EXTT15=
PLAYORDER=
